<svg width="11" height="11" viewBox="0 0 11 11" fill="none" xmlns="http://www.w3.org/2000/svg">
<path d="M1.22222 1.22222V9.77778H9.77778V1.22222H1.22222ZM0.55 0H10.45C10.7556 0 11 0.244445 11 0.55V10.45C11 10.6944 10.7556 11 10.45 11H0.55C0.305555 11 0 10.6944 0 10.45V0.55C0 0.244445 0.305555 0 0.55 0ZM6.11111 2.44444H2.44444V3.66667H6.11111V2.44444ZM6.11111 4.88889H2.44444V6.11111H6.11111V4.88889ZM6.11111 7.33333H2.44444V8.55556H6.11111V7.33333ZM8.55556 2.44444H7.33333V3.66667H8.55556V2.44444ZM8.55556 4.88889H7.33333V6.11111H8.55556V4.88889ZM8.55556 7.33333H7.33333V8.55556H8.55556V7.33333Z" fill="#B2B2B2"/>
</svg>
