<svg width="22" height="23" viewBox="0 0 22 23" fill="none" xmlns="http://www.w3.org/2000/svg">
<path d="M2.42798 22.5802C1.76029 22.5802 1.1887 22.3346 0.71322 21.8433C0.23774 21.3519 0 20.7613 0 20.0713V2.50892C0 1.81896 0.23774 1.22832 0.71322 0.736994C1.1887 0.245665 1.76029 0 2.42798 0H8.49794C8.84191 0 9.13023 0.120219 9.36291 0.360657C9.59559 0.601095 9.71193 0.899028 9.71193 1.25446C9.71193 1.60989 9.59559 1.90782 9.36291 2.14826C9.13023 2.3887 8.84191 2.50892 8.49794 2.50892H2.42798V20.0713H19.4239V13.799C19.4239 13.4436 19.5402 13.1457 19.7729 12.9052C20.0056 12.6648 20.2939 12.5446 20.6379 12.5446C20.9818 12.5446 21.2701 12.6648 21.5028 12.9052C21.7355 13.1457 21.8519 13.4436 21.8519 13.799V20.0713C21.8519 20.7613 21.6141 21.3519 21.1386 21.8433C20.6632 22.3346 20.0916 22.5802 19.4239 22.5802H2.42798ZM15.7819 6.27229H13.3539C13.0099 6.27229 12.7216 6.15207 12.4889 5.91163C12.2563 5.6712 12.1399 5.37326 12.1399 5.01783C12.1399 4.6624 12.2563 4.36447 12.4889 4.12403C12.7216 3.88359 13.0099 3.76337 13.3539 3.76337H15.7819V1.25446C15.7819 0.899028 15.8982 0.601095 16.1309 0.360657C16.3636 0.120219 16.6519 0 16.9959 0C17.3398 0 17.6282 0.120219 17.8609 0.360657C18.0935 0.601095 18.2099 0.899028 18.2099 1.25446V3.76337H20.6379C20.9818 3.76337 21.2701 3.88359 21.5028 4.12403C21.7355 4.36447 21.8519 4.6624 21.8519 5.01783C21.8519 5.37326 21.7355 5.6712 21.5028 5.91163C21.2701 6.15207 20.9818 6.27229 20.6379 6.27229H18.2099V8.78121C18.2099 9.13664 18.0935 9.43457 17.8609 9.67501C17.6282 9.91545 17.3398 10.0357 16.9959 10.0357C16.6519 10.0357 16.3636 9.91545 16.1309 9.67501C15.8982 9.43457 15.7819 9.13664 15.7819 8.78121V6.27229Z" fill="#6AC46A"/>
</svg>
