<svg width="7" height="13" viewBox="0 0 7 13" fill="none" xmlns="http://www.w3.org/2000/svg">
<path d="M0.242494 12.7431C0.0808314 12.5718 0 12.369 0 12.1347C0 11.9009 0.0808314 11.6983 0.242494 11.527L4.97921 6.50856L0.226328 1.47299C0.0754426 1.31313 0 1.11331 0 0.873518C0 0.633729 0.0808314 0.428195 0.242494 0.256917C0.404157 0.085639 0.595566 0 0.81672 0C1.03744 0 1.22864 0.085639 1.3903 0.256917L6.82217 6.02899C6.88684 6.0975 6.93275 6.17172 6.95991 6.25165C6.98664 6.33158 7 6.41722 7 6.50856C7 6.59991 6.98664 6.68555 6.95991 6.76548C6.93275 6.84541 6.88684 6.91963 6.82217 6.98814L1.37413 12.7602C1.22325 12.9201 1.03744 13 0.81672 13C0.595566 13 0.404157 12.9144 0.242494 12.7431Z" fill="#767676"/>
</svg>
