<svg width="7" height="13" viewBox="0 0 7 13" fill="none" xmlns="http://www.w3.org/2000/svg">
<path d="M6.75751 12.7431C6.91917 12.5718 7 12.369 7 12.1347C7 11.9009 6.91917 11.6983 6.75751 11.527L2.02079 6.50856L6.77367 1.47299C6.92456 1.31313 7 1.11331 7 0.873518C7 0.633729 6.91917 0.428195 6.75751 0.256917C6.59584 0.085639 6.40443 0 6.18328 0C5.96256 0 5.77136 0.085639 5.6097 0.256917L0.177829 6.02899C0.113164 6.0975 0.0672518 6.17172 0.0400925 6.25165C0.0133642 6.33158 0 6.41722 0 6.50856C0 6.59991 0.0133642 6.68555 0.0400925 6.76548C0.0672518 6.84541 0.113164 6.91963 0.177829 6.98814L5.62587 12.7602C5.77675 12.9201 5.96256 13 6.18328 13C6.40443 13 6.59584 12.9144 6.75751 12.7431Z" fill="#6AC46A"/>
</svg>
